<?xml version="1.0" encoding="utf-8"?>
<!-- Generator: Adobe Illustrator 27.3.1, SVG Export Plug-In . SVG Version: 6.00 Build 0)  -->
<svg version="1.1" id="Layer_1" xmlns="http://www.w3.org/2000/svg" xmlns:xlink="http://www.w3.org/1999/xlink" x="0px" y="0px"
	 viewBox="0 0 500 500" style="enable-background:new 0 0 500 500;" xml:space="preserve">
<style type="text/css">
	.st0{fill:none;stroke:#000000;stroke-width:5.534;stroke-miterlimit:10;}
	.st1{fill:none;stroke:#000000;stroke-width:11;stroke-miterlimit:10;}
</style>
<g>
	<path d="M183.3,146.5h-75.7c-15,0-27.1,12.1-27.1,27.1v15.9v0.4V257c0,8.4,6.8,15.2,15.2,15.2h0c8.4,0,15.2-6.8,15.2-15.2v-65.6
		c0-0.8,0.7-1.5,1.5-1.5h0c0.8,0,1.5,0.7,1.5,1.5v80.5v1v107.8c0,8.4,6.8,15.2,15.2,15.2h0c8.4,0,15.2-6.8,15.2-15.2V274.2
		c0-0.7,0.6-1.3,1.3-1.3l0,0c0.7,0,1.3,0.6,1.3,1.3l0,106.1c0,7.8,5.7,14.6,13.4,15.5c9.1,1,16.9-6.1,16.9-15.1V271.8h0v-80.5
		c0-0.8,0.7-1.5,1.5-1.5h0c0.8,0,1.5,0.7,1.5,1.5l0,65.2c0,7.8,5.7,14.6,13.4,15.5c9.1,1,16.9-6.1,16.9-15.1v-67.1v-0.4v-15.9
		C210.5,158.6,198.3,146.5,183.3,146.5z"/>
	<rect x="56.4" y="275.9" width="58.4" height="61.6"/>
	<rect x="79.5" y="263.4" class="st0" width="32.7" height="17.8"/>
	<circle cx="145.5" cy="115.7" r="28.3"/>
</g>
<g>
	<circle cx="397.5" cy="144" r="28.3"/>
	<path d="M416.8,281.2h-38.7V195c0-10.7,8.7-19.3,19.3-19.3h0c10.7,0,19.3,8.7,19.3,19.3V281.2z"/>
	<path d="M328.8,319h68.7c10.7,0,19.3-8.7,19.3-19.3v-14h-88V319z"/>
	<path d="M322.6,364.1l35.7-61.8l-28.9-16.7l-35.7,61.8c-4.6,8-1.9,18.2,6.1,22.8l0,0C307.8,374.8,318,372.1,322.6,364.1z"/>
	<rect x="230.1" y="258.5" width="124" height="17.2"/>
	<rect x="253.8" y="275.7" width="11" height="120.1"/>
	<rect x="435.3" y="193" width="11" height="147.7"/>
	<rect x="349.8" y="340.7" width="11" height="55.1"/>
	<rect x="435.3" y="340.7" width="11" height="55.1"/>
	<rect x="349.8" y="323.5" width="91" height="17.2"/>
	<path d="M373.8,207.1l-61.6,15.6c-8.9,2.3-14.3,11.3-12.1,20.2h0c2.3,8.9,11.3,14.3,20.2,12.1l53.4-13.5V207.1z"/>
</g>
<path class="st1" d="M449.5,476.5h-399c-14.9,0-27-12.1-27-27v-399c0-14.9,12.1-27,27-27h399c14.9,0,27,12.1,27,27v399
	C476.5,464.4,464.4,476.5,449.5,476.5z"/>
</svg>
